<svg xmlns="http://www.w3.org/2000/svg" xmlns:xlink="http://www.w3.org/1999/xlink" viewBox="0 0 33 33"><defs><style>.cls-1{fill:none;}.cls-2{clip-path:url(#clip-path);}.cls-3{fill:#242023;}</style><clipPath id="clip-path"><rect class="cls-1" width="33" height="33"/></clipPath></defs><g id="Шар_2"><g id="Шар_1-2"><g class="cls-2"><path class="cls-3" d="M28.17,4.83a16.51,16.51,0,0,0-23.34,0,16.51,16.51,0,0,0,0,23.34,16.51,16.51,0,0,0,23.34,0,16.51,16.51,0,0,0,0-23.34Zm1.57,19.11H24.3c.22-.53.4-1.05.57-1.58a18.91,18.91,0,0,0,.85-5.2h5.94A15,15,0,0,1,29.74,23.94ZM17.5,31.65h-.34V25.25h5.08a27.34,27.34,0,0,1-4.74,6.39Zm-2.18,0a27.18,27.18,0,0,1-4.66-6.39h5.18v6.41ZM3.26,23.94a15,15,0,0,1-1.92-6.78H7.27a18.32,18.32,0,0,0,.86,5.37c.14.47.31.94.49,1.41H3.26ZM3.38,8.86H9a21.38,21.38,0,0,0-1.37,4.43,18.51,18.51,0,0,0-.32,2.55h-6A14.9,14.9,0,0,1,3.38,8.86Zm12.1-7.5.36,0v6.2H11.08a29.71,29.71,0,0,1,4.3-6A.65.65,0,0,0,15.48,1.36Zm2.15,0A29.83,29.83,0,0,1,22,7.54H17.16V1.34Zm5,7.5a21,21,0,0,1,1.44,4.51,17.55,17.55,0,0,1,.31,2.47H17.16v-7Zm-6.79,0v7H8.62a18.1,18.1,0,0,1,.3-2.3,20.52,20.52,0,0,1,1.51-4.68Zm-7.25,8.3h7.25v6.78H10.05A17.49,17.49,0,0,1,8.59,17.16Zm8.57,6.78V17.16H24.4a17.94,17.94,0,0,1-1.52,6.78Zm8.54-8.1a18,18,0,0,0-.33-2.72,21.33,21.33,0,0,0-1.3-4.26h5.4l.14,0a15,15,0,0,1,2.05,7Zm3.06-8.3H23.48a29.25,29.25,0,0,0-3.86-5.9,15.41,15.41,0,0,1,9.14,5.9Zm-23-1.77a15,15,0,0,1,7.77-4.16A29.92,29.92,0,0,0,9.6,7.54H4.25A14.08,14.08,0,0,1,5.77,5.77ZM4.09,25.25H9.2a26.7,26.7,0,0,0,4.06,6.09,15.41,15.41,0,0,1-9.17-6.09Zm23.14,2a15,15,0,0,1-7.68,4.15,27.13,27.13,0,0,0,4.16-6.13h5.2A15,15,0,0,1,27.23,27.23Z"/></g></g></g></svg>
